<svg width="38" height="43" viewBox="0 0 38 43" fill="none" xmlns="http://www.w3.org/2000/svg">
<path d="M22 43C30.8366 43 38 35.8366 38 27C38 18.1634 30.8366 11 22 11C13.1634 11 6 18.1634 6 27C6 35.8366 13.1634 43 22 43Z" fill="url(#paint0_linear_2_7)"/>
<path d="M21.6704 3.98016C22.0959 3.03785 21.679 1.91758 20.6934 1.60501C18.9488 1.05171 17.1177 0.800423 15.2794 0.866763C12.8158 0.955663 10.406 1.61265 8.23811 2.78647C6.07021 3.96029 4.20291 5.61919 2.78192 7.63369C1.72162 9.13679 0.93119 10.8076 0.44098 12.571C0.16406 13.5671 0.87433 14.5285 1.89598 14.6873C2.91763 14.846 3.86082 14.1395 4.17321 13.1539C4.55221 11.9577 5.11391 10.8233 5.84141 9.79189C6.92991 8.24879 8.36031 6.97809 10.0208 6.07889C11.6814 5.17979 13.5273 4.67654 15.4144 4.60845C16.6758 4.56293 17.9328 4.71264 19.1417 5.04899C20.1377 5.32619 21.2449 4.92246 21.6704 3.98016Z" fill="url(#paint1_linear_2_7)"/>
<defs>
<linearGradient id="paint0_linear_2_7" x1="22" y1="24" x2="31.5" y2="43" gradientUnits="userSpaceOnUse">
<stop stopColor="#AF93FF"/>
<stop offset="1" stopColor="#818BE9"/>
</linearGradient>
<linearGradient id="paint1_linear_2_7" x1="1.27402" y1="10.272" x2="13" y2="6.99999" gradientUnits="userSpaceOnUse">
<stop stopColor="#818BE9"/>
<stop offset="1" stopColor="#AF93FF"/>
</linearGradient>
</defs>
</svg>
